<svg id="visual" viewBox="0 0 900 600" width="900" height="600" xmlns="http://www.w3.org/2000/svg" xmlns:xlink="http://www.w3.org/1999/xlink" version="1.1"><rect width="900" height="600" fill="#001829"></rect><g><g transform="translate(784 102)"><path d="M0 -147L79.5 -123.7L133.7 -61.1L145.5 20.9L111.1 96.3L41.4 141L-41.4 141L-111.1 96.3L-145.5 20.9L-133.7 -61.1L-79.5 -123.7Z" fill="none" stroke="#297EA6" stroke-width="2"></path></g><g transform="translate(134 171)"><path d="M0 -130L70.3 -109.4L118.3 -54L128.7 18.5L98.2 85.1L36.6 124.7L-36.6 124.7L-98.2 85.1L-128.7 18.5L-118.3 -54L-70.3 -109.4Z" fill="none" stroke="#297EA6" stroke-width="2"></path></g><g transform="translate(432 337)"><path d="M0 -100L54.1 -84.1L91 -41.5L99 14.2L75.6 65.5L28.2 95.9L-28.2 95.9L-75.6 65.5L-99 14.2L-91 -41.5L-54.1 -84.1Z" fill="none" stroke="#297EA6" stroke-width="2"></path></g><g transform="translate(800 537)"><path d="M0 -94L50.8 -79.1L85.5 -39L93 13.4L71 61.6L26.5 90.2L-26.5 90.2L-71 61.6L-93 13.4L-85.5 -39L-50.8 -79.1Z" stroke="#297EA6" fill="none" stroke-width="2"></path></g></g></svg>